Decoding The Past Doomsday 2012 The End Of Days 2007 - 720p
Media info

   Video #1
      ID : 1
      Format : AVC
      Format/Info : Advanced Video Codec
      Format profile : High@L4.1
      Format settings, CABAC : Yes
      Format settings, ReFrames : 8 frames
      Codec ID : V_MPEG4/ISO/AVC
      Duration : 44mn 53s
      Bit rate : 4 000 Kbps
      Width : 1 280 pixels
      Height : 720 pixels
      Display aspect ratio : 16:9
      Frame rate : 29.970 fps
      Color space : YUV
      Chroma subsampling : 4:2:0
      Bit depth : 8 bits
      Scan type : Progressive
      Bits/(Pixel*Frame) : 0.145
      Stream size : 1.23 GiB (89%)
      Writing library : x264 core 64 r973M f473669
      aq=1:1.00
      Language : English

   Audio #2
      ID : 2
      Format : AC-3
      Format/Info : Audio Coding 3
      Mode extension : CM (complete main)
      Codec ID : A_AC3
      Duration : 44mn 53s
      Bit rate mode : Constant
      Bit rate : 384 Kbps
      Channel(s) : 2 channels
      Channel positions : Front: L R
      Sampling rate : 48.0 KHz
      Bit depth : 16 bits
      Compression mode : Lossy
      Stream size : 123 MiB (9%)